<svg xmlns="http://www.w3.org/2000/svg" width="32" height="32" viewBox="0 0 32 32">
  <defs>
    <style>
      .document { fill: #64748b; }
      .pen { fill: #1e3a8a; }
      .lines { fill: #64748b; }
      .pen-tip { fill: #1e3a8a; }
    </style>
  </defs>
  
  <!-- Document background -->
  <path class="document" d="M6 4 C4.9 4 4 4.9 4 6 L4 26 C4 27.1 4.9 28 6 28 L26 28 C27.1 28 28 27.1 28 26 L28 6 C28 4.9 27.1 4 26 4 Z"/>
  
  <!-- Document inner area -->
  <rect x="6" y="6" width="20" height="20" fill="white" rx="1"/>
  
  <!-- Text lines -->
  <rect class="lines" x="10" y="15" width="8" height="1.5" rx="0.75"/>
  <rect class="lines" x="10" y="18" width="6" height="1.5" rx="0.75"/>
  <rect class="lines" x="10" y="21" width="10" height="1.5" rx="0.75"/>
  
  <!-- Pen body -->
  <path class="pen" d="M8 8 L20 20 L18 22 L6 10 Z"/>
  
  <!-- Pen nib -->
  <path class="pen-tip" d="M6 10 L8 8 L10 10 L8 12 Z"/>
  
  <!-- Pen tip detail -->
  <circle cx="7" cy="11" r="1" fill="white"/>
</svg>

