<?xml version="1.0" encoding="utf-8"?>
<!-- Generator: Adobe Illustrator 26.0.3, SVG Export Plug-In . SVG Version: 6.00 Build 0)  -->
<svg version="1.1" id="Layer_1" xmlns="http://www.w3.org/2000/svg" xmlns:xlink="http://www.w3.org/1999/xlink" x="0px" y="0px"
	 viewBox="0 0 805 600" style="enable-background:new 0 0 805 600;" xml:space="preserve">
<style type="text/css">
	.st0{fill:#F8E71C;stroke:#FFFFFF;}
	.st1{fill:#D0021B;stroke:#FFFFFF;}
	.st2{font-family:'Arial-BoldMT';}
	.st3{font-size:12px;}
	.st4{font-size:18px;}
	.st5{font-family:'ArialMT';}
	.st6{font-size:22.14px;}
	.st7{font-size:19.68px;}
	.st8{font-size:16px;}
</style>
<g id="pie" transform="translate(80.5,154)">
	<path class="st0" d="M0,10.9c43.4,0,78.5,35.1,78.5,78.5c0,32.2-19.7,61.1-49.6,73l-3.7-9.3c35.2-13.9,52.4-53.7,38.5-88.9
		C53.3,38.1,28.1,20.9,0,20.9V10.9z"/>
	<path class="st1" d="M28.9,162.4c-40.3,16-85.9-3.8-101.9-44.1s3.8-85.9,44.1-101.9c9.2-3.6,19-5.5,28.9-5.5v10
		c-37.8,0-68.5,30.7-68.5,68.5s30.7,68.5,68.5,68.5c8.6,0,17.2-1.6,25.2-4.8L28.9,162.4z"/>
</g>
<text transform="matrix(1 0 0 1 33.0262 219.4912)" class="st2 st3">Caixa Econômica</text>
<text transform="matrix(1 0 0 1 62.5459 242.5922)"><tspan x="0" y="0" class="st2 st4">56%</tspan><tspan x="36" y="0" class="st5 st4"> </tspan><tspan x="-43.5" y="21.6" class="st5 st4">denied requests</tspan></text>
<text transform="matrix(1 0 0 1 229.451 252.9246)" class="st2 st4">51% </text>
<g id="pie_00000034800266153344353810000009281888846529579706_" transform="translate(80.5,154)">
	<path class="st0" d="M161,10.9c43.4,0,78.5,35.1,78.5,78.5c0,41.4-32.2,75.7-73.6,78.3l-0.6-10c37.8-2.4,66.4-34.9,64.1-72.7
		C227.1,49,197.2,20.9,161,20.9V10.9z"/>
	<path class="st1" d="M165.9,167.8c-43.3,2.7-80.6-30.1-83.3-73.4c-2.7-43.3,30.1-80.6,73.4-83.3c1.6-0.1,3.3-0.2,4.9-0.2v10
		c-37.8,0-68.5,30.7-68.5,68.5s30.7,68.5,68.5,68.5c1.4,0,2.9,0,4.3-0.1L165.9,167.8z"/>
</g>
<text transform="matrix(1 0 0 1 231.54 219.4913)" class="st2 st3">GSI</text>
<g transform="translate(322,0)">
	<g id="pie_00000011028790576212827700000005391861756128805039_" transform="translate(80.5,154)">
		<path class="st0" d="M0,10.9c43.4,0,78.5,35.1,78.5,78.5S43.4,167.9,0,167.9c-8.2,0-16.4-1.3-24.3-3.8l3.1-9.5
			c36,11.7,74.6-8,86.3-44s-8-74.6-44-86.3c-6.8-2.2-14-3.4-21.2-3.4V10.9z"/>
		<path class="st1" d="M-24.3,164.1c-41.2-13.4-63.8-57.7-50.4-98.9C-64.1,32.8-34,10.9,0,10.9v10c-37.8,0-68.5,30.7-68.5,68.5
			c0,29.7,19.1,56,47.3,65.1L-24.3,164.1z"/>
	</g>
</g>
<g transform="translate(483,0)">
	<g id="pie_00000024709844901251402130000002122757670835562937_" transform="translate(80.5,154)">
		<path class="st0" d="M0,10.9c43.4,0,78.5,35.1,78.5,78.5S43.4,167.9,0,167.9c-11.6,0-23-2.6-33.4-7.5l4.3-9
			c34.2,16.1,75,1.4,91.1-32.8s1.4-75-32.8-91.1C20,23.2,10.1,20.9,0,20.9V10.9z"/>
		<path class="st1" d="M-33.4,160.5C-72.7,142-89.5,95.2-71,56c12.9-27.5,40.6-45.1,71-45.1v10c-37.8,0-68.5,30.7-68.5,68.5
			c0,26.5,15.3,50.7,39.3,62L-33.4,160.5z"/>
	</g>
</g>
<g transform="translate(644,0)">
	<g id="pie_00000133529687286371529240000011167029399332465083_" transform="translate(80.5,154)">
		<path class="st0" d="M0,10.9c43.4,0,78.5,35.1,78.5,78.5S43.4,167.9,0,167.9c-25.1,0-48.7-12-63.5-32.4l8.1-5.9
			c22.2,30.6,65.1,37.4,95.7,15.2s37.4-65.1,15.2-95.7C42.5,31.4,21.9,20.9,0,20.9V10.9z"/>
		<path class="st1" d="M-63.5,135.6C-89,100.5-81.2,51.4-46.1,25.9c13.4-9.7,29.6-15,46.1-15v10c-37.8,0-68.5,30.7-68.5,68.5
			c0,14.5,4.6,28.6,13.1,40.3L-63.5,135.6z"/>
	</g>
	<text transform="matrix(1 0 0 1 69.0223 252.9243)" class="st2 st4">35% </text>
	<text transform="matrix(1 0 0 1 56.0885 219.4915)" class="st2 st3">Itamaraty</text>
</g>
<g transform="translate(0,300)">
	<g id="pie_00000078034552838740998780000001217733015376952511_" transform="translate(80.5,154)">
		<path class="st0" d="M0-78.5c43.4,0,78.5,35.1,78.5,78.5S43.4,78.5,0,78.5c-26.9,0-51.9-13.7-66.3-36.4l8.4-5.4
			c20.3,31.9,62.6,41.4,94.5,21.1S78.1-4.8,57.8-36.7C45.3-56.5,23.5-68.5,0-68.5V-78.5z"/>
		<path class="st1" d="M-66.3,42.1C-89.5,5.5-78.7-43-42.1-66.3c12.6-8,27.2-12.2,42.1-12.2v10c-37.8,0-68.5,30.7-68.5,68.5
			c0,13,3.7,25.7,10.7,36.7L-66.3,42.1z"/>
	</g>
</g>
<g transform="translate(161,300)">
	<g id="pie_00000183237080392223112930000000474669414109769606_" transform="translate(80.5,154)">
		<path class="st0" d="M0-78.5c43.4,0,78.5,35.1,78.5,78.5S43.4,78.5,0,78.5c-28.6,0-55-15.6-68.8-40.7L-60,33
			c18.2,33.2,59.9,45.3,93,27S78.3,0.2,60-33C48-54.9,25-68.5,0-68.5V-78.5z"/>
		<path class="st1" d="M-68.8,37.8c-20.9-38-7-85.7,31-106.6c11.6-6.4,24.6-9.7,37.8-9.7v10c-37.8,0-68.5,30.7-68.5,68.5
			c0,11.5,2.9,22.9,8.5,33L-68.8,37.8z"/>
		<text transform="matrix(1 0 0 1 149.3827 13.2995)" class="st2 st4">32% </text>
		<text transform="matrix(1 0 0 1 138.7508 -23.565)" class="st2 st3">Exército</text>
	</g>
</g>
<g transform="translate(322,300)">
	<g id="pie_00000092416183595051255540000011874413498486725504_" transform="translate(80.5,154)">
		<path class="st0" d="M0-78.5c43.4,0,78.5,35.1,78.5,78.5S43.4,78.5,0,78.5c-30.4,0-58.1-17.6-71-45.1l9-4.3
			C-45.9,63.4-5.1,78.1,29.2,62S78.1,5.1,62-29.2c-11.3-24-35.4-39.3-62-39.3V-78.5z"/>
		<path class="st1" d="M-71,33.4C-89.5-5.8-72.7-52.6-33.4-71C-23-75.9-11.6-78.5,0-78.5v10c-37.8,0-68.5,30.7-68.5,68.5
			c0,10.1,2.2,20,6.5,29.2L-71,33.4z"/>
		<text transform="matrix(1 0 0 1 148.3177 13.2996)" class="st2 st4">30% </text>
		<text transform="matrix(1 0 0 1 117.5626 -23.5649)" class="st2 st3">Banco Central</text>
	</g>
</g>
<g transform="translate(483,300)">
	<g id="pie_00000058562713941118847600000000654804198250663303_" transform="translate(80.5,154)">
		<path class="st0" d="M0-78.5c43.4,0,78.5,35.1,78.5,78.5S43.4,78.5,0,78.5c-34,0-64.1-21.9-74.7-54.2l9.5-3.1
			c11.7,36,50.3,55.7,86.3,44s55.7-50.3,44-86.3C56-49.4,29.7-68.5,0-68.5V-78.5z"/>
		<path class="st1" d="M-74.7,24.3C-88.1-17-65.5-61.3-24.3-74.7c7.8-2.5,16-3.8,24.3-3.8v10c-37.8,0-68.5,30.7-68.5,68.5
			c0,7.2,1.1,14.3,3.4,21.2L-74.7,24.3z"/>
	</g>
</g>
<g transform="translate(644,300)">
	<g id="pie_00000027582776311487578260000017993782444974823612_" transform="translate(80.5,154)">
		<path class="st0" d="M0-78.5c43.4,0,78.5,35.1,78.5,78.5S43.4,78.5,0,78.5c-35.8,0-67.1-24.3-76-59l9.7-2.5
			c9.4,36.6,46.7,58.7,83.4,49.3S75.8,19.6,66.3-17C58.6-47.3,31.3-68.5,0-68.5V-78.5z"/>
		<path class="st1" d="M-76,19.5c-10.8-42,14.5-84.8,56.5-95.6c6.4-1.6,12.9-2.5,19.5-2.5v10c-37.8,0-68.5,30.7-68.5,68.5
			c0,5.7,0.7,11.5,2.2,17L-76,19.5z"/>
	</g>
</g>
<text transform="matrix(1 0 0 1 386.5492 252.9245)" class="st2 st4">45% </text>
<text transform="matrix(1 0 0 1 360.0656 219.4916)" class="st2 st3">Banco do Brasil</text>
<text transform="matrix(1 0 0 1 550.8687 263.7245)" class="st2 st4">43%</text>
<text transform="matrix(1 0 0 1 552.9998 219.4913)" class="st2 st3">AGU</text>
<text transform="matrix(1 0 0 1 66.3787 467.2993)" class="st2 st4">34% </text>
<text transform="matrix(1 0 0 1 49.1568 430.4347)" class="st2 st3">Transpetro</text>
<text transform="matrix(1 0 0 1 224.1987 467.2995)" class="st2 st4">33% </text>
<text transform="matrix(1 0 0 1 225.5791 430.4354)" class="st2 st3">FINEP</text>
<text transform="matrix(1 0 0 1 706.5295 467.2995)" class="st2 st4">29% </text>
<text transform="matrix(1 0 0 1 680.046 430.4355)" class="st2 st3">Polícia Federal</text>
<rect x="250.4" y="54.2" class="st1" width="65.7" height="24.4"/>
<text transform="matrix(1 0 0 1 20.4242 33.4408)" class="st2 st6">Top 10 most opaque Brazilian public bodies in the federal government </text>
<text transform="matrix(1 0 0 1 172.0343 73.7904)"><tspan x="0" y="0" class="st5 st7">Share of </tspan><tspan x="79.9" y="0" class="st2 st7">denied</tspan><tspan x="143.3" y="0" class="st5 st7"> FOIA requests from 2013 to 2021</tspan></text>
<text transform="matrix(1 0 0 1 224.2649 573.0197)" class="st2 st8">Source: Controladoria-Geral da União (CGU)</text>
</svg>
