<?xml version="1.0" encoding="utf-8"?>
<!-- Generator: Adobe Illustrator 26.0.3, SVG Export Plug-In . SVG Version: 6.00 Build 0)  -->
<svg version="1.1" id="exportSvg" xmlns="http://www.w3.org/2000/svg" xmlns:xlink="http://www.w3.org/1999/xlink" x="0px" y="0px"
	 viewBox="0 0 350 200.9" style="enable-background:new 0 0 350 200.9;" xml:space="preserve">
<style type="text/css">
	.st0{clip-path:url(#SVGID_00000005951200571739726690000003877884942893321140_);}
	.st1{fill:#C4C4C4;fill-opacity:0.1;}
	.st2{clip-path:url(#SVGID_00000058567862784461140380000018113869951558523051_);}
	.st3{fill:none;stroke:#E7E7E7;}
	.st4{opacity:0.16;fill:#FFE59C;enable-background:new    ;}
	.st5{fill:none;stroke:#FFE59C;stroke-width:4;stroke-linecap:round;stroke-linejoin:round;}
	.st6{fill:none;stroke:#181818;stroke-linecap:square;}
	.st7{fill:none;stroke:#181818;}
	.st8{clip-path:url(#SVGID_00000005960500132596525480000004564005931763130006_);}
	.st9{clip-path:url(#SVGID_00000133494759593936521030000006272745200768989058_);}
	.st10{fill:#747474;}
	.st11{font-family:'RobotoSlab-Regular';}
	.st12{font-size:5.4px;}
	.st13{fill:#A2A2A2;}
	.st14{fill:#181818;}
	.st15{enable-background:new    ;}
	.st16{font-size:6.3px;}
	.st17{clip-path:url(#SVGID_00000041977503767874708310000003111505457188828605_);}
	.st18{fill:#888888;}
	.st19{font-size:4.95px;}
	.st20{letter-spacing:-1;}
</style>
<g>
	<defs>
		<rect id="SVGID_1_" x="658.9" y="-363.2" width="713" height="495"/>
	</defs>
	<clipPath id="SVGID_00000132790891637554612620000003261002656242293429_">
		<use xlink:href="#SVGID_1_"  style="overflow:visible;"/>
	</clipPath>
	<g id="__svelte-dw-svg" style="clip-path:url(#SVGID_00000132790891637554612620000003261002656242293429_);">
		<g id="chart-svg">
			<rect x="1149.2" y="-252.2" class="st1" width="200.4" height="331"/>
			<g>
				<defs>
					<rect id="SVGID_00000008830544140762948470000001260062296917078451_" x="658.9" y="-259.2" width="713" height="358"/>
				</defs>
				<clipPath id="SVGID_00000001661205756534753150000004348852661810906759_">
					<use xlink:href="#SVGID_00000008830544140762948470000001260062296917078451_"  style="overflow:visible;"/>
				</clipPath>
				
					<g id="svg-main-svg" transform="translate(0.00000, 104.00000)" style="clip-path:url(#SVGID_00000001661205756534753150000004348852661810906759_);">
					<g id="group-svg" transform="translate(28.53125, 7)">
						<g id="y-grid-lines-svg_grid-y-svg_datawrapper-ennaz-1fn7900-svg">
							<path class="st3" d="M1324.4-65.3"/>
							<line class="st3" x1="658.9" y1="-98.4" x2="1324.4" y2="-98.4"/>
							<path class="st3" d="M1324.4-131.5"/>
							<line class="st3" x1="658.9" y1="-164.6" x2="1324.4" y2="-164.6"/>
							<path class="st3" d="M1324.4-197.7"/>
							<line class="st3" x1="658.9" y1="-230.8" x2="1324.4" y2="-230.8"/>
							<path class="st3" d="M1324.4-263.9"/>
							<path class="st3" d="M658.9-263.9"/>
							<line class="st3" x1="658.9" y1="-297" x2="1324.4" y2="-297"/>
							<path class="st3" d="M1324.4-330.1"/>
							<path class="st3" d="M658.9-330.1"/>
							<line class="st3" x1="658.9" y1="-363.2" x2="1324.4" y2="-363.2"/>
						</g>
						<path class="st4" d="M668.7-32.2c26.9,0,53.8,0,80.7,0c26.9,0,53.8,0,80.7,0c26.9,0,53.8,0,80.7,0c27,0,53.9,0,80.9,0
							c26.9,0,53.8,0,80.7,0c26.9,0,53.8,0,80.7,0s53.8,0,80.7,0c27,0,53.9,0,80.9,0v-169c-27-36.3-53.9-72.7-80.9-72.7
							c-26.9,0-53.8,80.1-80.7,80.1s-53.8-16.4-80.7-16.4c-26.9,0-53.8,7.6-80.7,7.6c-27,0-53.9-1.4-80.9-1.4
							c-26.9,0-53.8,14.8-80.7,14.8c-26.9,0-53.8-21.8-80.7-21.8c-26.9,0-53.8,8.1-80.7,16.2V-32.2z"/>
						<g id="lines-svg">
							<g id="pct_não_deferidos-svg">
								<path id="pct_não_deferidos" class="st5" d="M668.7-194.6c26.9-8.1,53.8-16.2,80.7-16.2c26.9,0,53.8,21.8,80.7,21.8
									c26.9,0,53.8-14.8,80.7-14.8c27,0,53.9,1.4,80.9,1.4c26.9,0,53.8-7.6,80.7-7.6c26.9,0,53.8,16.4,80.7,16.4
									s53.8-80.1,80.7-80.1c27,0,53.9,36.3,80.9,72.7"/>
							</g>
						</g>
						<g id="line-symbols-svg">
						</g>
						<g id="x-tick-labels-svg_grid-x-svg_date-axis-svg_datawrapper-ennaz-63wp0p-svg" transform="translate(0, 336)">
							<text transform="matrix(1 0 0 1 656.2031 -351.1673)" class="st10 st11" style="font-size:12px;">2013</text>
							<text transform="matrix(1 0 0 1 736.6671 -351.1673)" class="st10 st11" style="font-size:12px;">2014</text>
							<text transform="matrix(1 0 0 1 817.6788 -351.1673)" class="st10 st11" style="font-size:12px;">2015</text>
							<text transform="matrix(1 0 0 1 898.1955 -351.1673)" class="st10 st11" style="font-size:12px;">2016</text>
							<text transform="matrix(1 0 0 1 979.1647 -351.1673)" class="st10 st11" style="font-size:12px;">2017</text>
							<text transform="matrix(1 0 0 1 1059.8572 -351.1673)" class="st10 st11" style="font-size:12px;">2018</text>
							<text transform="matrix(1 0 0 1 1140.4911 -351.1673)" class="st10 st11" style="font-size:12px;">2019</text>
							<text transform="matrix(1 0 0 1 1220.3105 -351.1673)" class="st10 st11" style="font-size:12px;">2020</text>
							<text transform="matrix(1 0 0 1 1302.1821 -351.1673)" class="st10 st11" style="font-size:12px;">2021</text>
						</g>
						<g id="x-base-lines-svg_grid-x-svg_datawrapper-ennaz-1io9s9d-svg">
						</g>
						<g id="y-tick-labels-svg_grid-y-svg_number-axis-svg_datawrapper-ennaz-yhj5g2-svg" transform="translate(-5, 0)">
							<text transform="matrix(1 0 0 1 652.0993 -28.1673)" class="st13 st11" style="font-size:12px;">0</text>
							<text transform="matrix(1 0 0 1 647.154 -94.3673)" class="st13 st11" style="font-size:12px;">10</text>
							<text transform="matrix(1 0 0 1 645.4724 -160.5672)" class="st13 st11" style="font-size:12px;">20</text>
							<text transform="matrix(1 0 0 1 645.6188 -226.7672)" class="st13 st11" style="font-size:12px;">30</text>
							<text transform="matrix(1 0 0 1 645.1442 -292.9673)" class="st13 st11" style="font-size:12px;">40</text>
							<text transform="matrix(1 0 0 1 637.2106 -359.1673)" class="st13 st11" style="font-size:12px;">50%</text>
						</g>
						<g id="y-base-lines-svg_grid-y-svg_datawrapper-ennaz-1io9s9d-svg">
							<line class="st6" x1="1324.4" y1="-32.2" x2="658.9" y2="-32.2"/>
						</g>
					</g>
				</g>
			</g>
			<text transform="matrix(1 0 0 1 1352.9431 -83.2141)" class="st14 st11" style="font-size:12px;">%</text>
			<g id="svelte-1k23k3-svg" transform="translate(599.53125, 201.00000)">
				<g id="callout-line-svg">
					<path class="st7" d="M627.9-363.2h26"/>
					<path class="st7" d="M649.2-366.9l4.8,3.8l-4.8,3.8"/>
				</g>
			</g>
			<text transform="matrix(1 0 0 1 1069.2198 -169.5384)" class="st15"><tspan x="0" y="0" class="st14 st11" style="font-size:14px;">1 out of 3 requests were </tspan><tspan x="30.1" y="16.8" class="st14 st11" style="font-size:14px;">denied in 2020</tspan></text>
			<g>
				<defs>
					<rect id="SVGID_00000181085531570293929200000014735660369664301210_" x="658.9" y="-259.2" width="713" height="358"/>
				</defs>
				<clipPath id="SVGID_00000099640375987323623600000015268331653635197631_">
					<use xlink:href="#SVGID_00000181085531570293929200000014735660369664301210_"  style="overflow:visible;"/>
				</clipPath>
				
					<g id="tooltip-layer-svg" transform="translate(0.00000, 104.00000)" style="clip-path:url(#SVGID_00000099640375987323623600000015268331653635197631_);">
					<g id="group-svg_00000008837755747147070790000011231993356173791147_" transform="translate(28.53125, 7)">
					</g>
				</g>
			</g>
		</g>
		<g id="footer-svg">
			<text transform="matrix(1 0 0 1 658.9431 129.8327)" class="st18 st11" style="font-size:11px;">Chart:</text>
			<text transform="matrix(1 0 0 1 690.1974 129.8327)" class="st15"><tspan x="0" y="0" class="st18 st11" style="font-size:11px; letter-spacing:-2;">​</tspan><tspan x="0" y="0" class="st18 st11" style="font-size:11px;"> </tspan><tspan x="2.7" y="0" class="st18 st11" style="font-size:11px; letter-spacing:-2;">​</tspan></text>
			<text transform="matrix(1 0 0 1 692.9313 129.8327)" class="st18 st11" style="font-size:11px;">Luiz Fernando Toledo/Fiquem Sabendo</text>
			<text transform="matrix(1 0 0 1 897.0652 129.8327)" class="st15"><tspan x="0" y="0" class="st18 st11" style="font-size:11px; letter-spacing:-2;">​</tspan><tspan x="0" y="0" class="st18 st11" style="font-size:11px;"> </tspan><tspan x="2.7" y="0" class="st18 st11" style="font-size:11px; letter-spacing:-2;">​</tspan></text>
			<text transform="matrix(1 0 0 1 899.7991 129.8327)" class="st18 st11" style="font-size:11px;">•</text>
			<text transform="matrix(1 0 0 1 903.5105 129.8327)" class="st15"><tspan x="0" y="0" class="st18 st11" style="font-size:11px; letter-spacing:-2;">​</tspan><tspan x="0" y="0" class="st18 st11" style="font-size:11px;"> </tspan><tspan x="2.7" y="0" class="st18 st11" style="font-size:11px; letter-spacing:-2;">​</tspan></text>
			<text transform="matrix(1 0 0 1 906.2444 129.8327)" class="st18 st11" style="font-size:11px;">Source</text>
			<text transform="matrix(1 0 0 1 942.0857 129.8327)" class="st18 st11" style="font-size:11px;">:</text>
			<text transform="matrix(1 0 0 1 944.3362 129.8327)" class="st15"><tspan x="0" y="0" class="st18 st11" style="font-size:11px; letter-spacing:-2;">​</tspan><tspan x="0" y="0" class="st18 st11" style="font-size:11px;"> </tspan><tspan x="2.7" y="0" class="st18 st11" style="font-size:11px; letter-spacing:-2;">​</tspan></text>
			<text transform="matrix(1 0 0 1 947.0701 129.8327)" class="st18 st11" style="font-size:11px;">CGU</text>
			<text transform="matrix(1 0 0 1 969.8918 129.8327)" class="st15"><tspan x="0" y="0" class="st18 st11" style="font-size:11px; letter-spacing:-2;">​</tspan><tspan x="0" y="0" class="st18 st11" style="font-size:11px;"> </tspan><tspan x="2.7" y="0" class="st18 st11" style="font-size:11px; letter-spacing:-2;">​</tspan></text>
			<text transform="matrix(1 0 0 1 972.6257 129.8327)" class="st18 st11" style="font-size:11px;">•</text>
			<text transform="matrix(1 0 0 1 976.3372 129.8327)" class="st15"><tspan x="0" y="0" class="st18 st11" style="font-size:11px; letter-spacing:-2;">​</tspan><tspan x="0" y="0" class="st18 st11" style="font-size:11px;"> </tspan><tspan x="2.7" y="0" class="st18 st11" style="font-size:11px; letter-spacing:-2;">​</tspan></text>
			<text transform="matrix(1 0 0 1 1045.6995 129.8327)" class="st15"><tspan x="0" y="0" class="st18 st11" style="font-size:11px; letter-spacing:-2;">​</tspan><tspan x="0" y="0" class="st18 st11" style="font-size:11px;"> </tspan><tspan x="2.7" y="0" class="st18 st11" style="font-size:11px; letter-spacing:-2;">​</tspan></text>
		</g>
		<g id="__svelte-dw-svg_00000041273050094154353900000010104866531693938329_">
			<g id="chart-svg_00000171705401264178233880000017703469261791860612_">
				<rect x="235.8" y="18.2" class="st1" width="90.2" height="148.9"/>
				<g>
					<defs>
						<rect id="SVGID_00000084495906010331845820000008913970438624784043_" x="15.2" y="15.1" width="320.9" height="161.1"/>
					</defs>
					<clipPath id="SVGID_00000142862523260513531930000010275093523474911649_">
						<use xlink:href="#SVGID_00000084495906010331845820000008913970438624784043_"  style="overflow:visible;"/>
					</clipPath>
					
						<g id="svg-main-svg_00000041284606043152863210000016273909737436544159_" transform="translate(0.00000, 104.00000)" style="clip-path:url(#SVGID_00000142862523260513531930000010275093523474911649_);">
						<g id="group-svg_00000098917765244960575960000001270947691272207031_" transform="translate(28.53125, 7)">
							<g id="y-grid-lines-svg_grid-y-svg_datawrapper-ennaz-1fn7900-svg_00000159457263352846216990000011272190337659465901_">
								<path class="st3" d="M299,41.3"/>
								<line class="st3" x1="-0.5" y1="26.4" x2="299" y2="26.4"/>
								<path class="st3" d="M299,11.5"/>
								<line class="st3" x1="-0.5" y1="-3.4" x2="299" y2="-3.4"/>
								<path class="st3" d="M299-18.3"/>
								<line class="st3" x1="-0.5" y1="-33.2" x2="299" y2="-33.2"/>
								<path class="st3" d="M299-48.1"/>
								<path class="st3" d="M-0.5-48.1"/>
								<line class="st3" x1="-0.5" y1="-63" x2="299" y2="-63"/>
								<path class="st3" d="M299-77.9"/>
								<path class="st3" d="M-0.5-77.9"/>
								<line class="st3" x1="-0.5" y1="-92.8" x2="299" y2="-92.8"/>
							</g>
							<path class="st4" d="M3.9,56.2c12.1,0,24.2,0,36.3,0s24.2,0,36.3,0s24.2,0,36.3,0c12.1,0,24.3,0,36.4,0c12.1,0,24.2,0,36.3,0
								c12.1,0,24.2,0,36.3,0s24.2,0,36.3,0c12.1,0,24.3,0,36.4,0v-76.1c-12.1-16.3-24.3-32.7-36.4-32.7
								c-12.1,0-24.2,36.1-36.3,36.1s-24.2-7.4-36.3-7.4c-12.1,0-24.2,3.4-36.3,3.4c-12.1,0-24.3-0.6-36.4-0.6
								c-12.1,0-24.2,6.6-36.3,6.6s-24.2-9.8-36.3-9.8S16-20.6,3.9-17V56.2z"/>
							<g id="lines-svg_00000022547943424941599260000003839051638728885691_">
								<g id="pct_não_deferidos-svg_00000075843708962595644980000002504312483817946807_">
									<path id="pct_não_deferidos_00000042007990157055349390000010733257424984955812_" class="st5" d="M3.9-17
										c12.1-3.6,24.2-7.3,36.3-7.3s24.2,9.8,36.3,9.8s24.2-6.6,36.3-6.6c12.1,0,24.3,0.6,36.4,0.6c12.1,0,24.2-3.4,36.3-3.4
										c12.1,0,24.2,7.4,36.3,7.4s24.2-36.1,36.3-36.1c12.1,0,24.3,16.3,36.4,32.7"/>
								</g>
							</g>
							<g id="line-symbols-svg_00000125603098758700937470000002543060510251435677_">
							</g>
							
								<g id="x-tick-labels-svg_grid-x-svg_date-axis-svg_datawrapper-ennaz-63wp0p-svg_00000149344472607134310050000002663440159131043743_" transform="translate(0, 336)">
								<text transform="matrix(1 0 0 1 -1.6977 -272.1907)" class="st10 st11 st12">2013</text>
								<text transform="matrix(1 0 0 1 34.5118 -272.1907)" class="st10 st11 st12">2014</text>
								<text transform="matrix(1 0 0 1 70.9668 -272.1907)" class="st10 st11 st12">2015</text>
								<text transform="matrix(1 0 0 1 107.1993 -272.1907)" class="st10 st11 st12">2016</text>
								<text transform="matrix(1 0 0 1 143.6358 -272.1907)" class="st10 st11 st12">2017</text>
								<text transform="matrix(1 0 0 1 179.9468 -272.1907)" class="st10 st11 st12">2018</text>
								<text transform="matrix(1 0 0 1 216.2325 -272.1907)" class="st10 st11 st12">2019</text>
								<text transform="matrix(1 0 0 1 252.1509 -272.1907)" class="st10 st11 st12">2020</text>
								<text transform="matrix(1 0 0 1 288.9932 -272.1907)" class="st10 st11 st12">2021</text>
							</g>
							<g id="x-base-lines-svg_grid-x-svg_datawrapper-ennaz-1io9s9d-svg_00000144337349933603846190000004802109653568888752_">
							</g>
							
								<g id="y-tick-labels-svg_grid-y-svg_number-axis-svg_datawrapper-ennaz-yhj5g2-svg_00000135691615241997817330000017223963569751562408_" transform="translate(-5, 0)">
								<text transform="matrix(1 0 0 1 -0.7939 57.9597)" class="st13 st11 st12">0</text>
								<text transform="matrix(1 0 0 1 -3.0195 28.1697)" class="st13 st11 st12">10</text>
								<text transform="matrix(1 0 0 1 -3.7763 -1.6194)" class="st13 st11 st12">20</text>
								<text transform="matrix(1 0 0 1 -3.7104 -31.4104)" class="st13 st11 st12">30</text>
								<text transform="matrix(1 0 0 1 -3.9238 -61.1995)" class="st13 st11 st12">40</text>
								<text transform="matrix(1 0 0 1 -7.4941 -90.9905)" class="st13 st11 st12">50%</text>
							</g>
							<g id="y-base-lines-svg_grid-y-svg_datawrapper-ennaz-1io9s9d-svg_00000078727265708417528460000011144562327501957766_">
								<line class="st6" x1="299" y1="56.2" x2="-0.5" y2="56.2"/>
							</g>
						</g>
					</g>
				</g>
				<text transform="matrix(1 0 0 1 327.5279 94.239)" class="st14 st11 st12">%</text>
				<g id="svelte-1k23k3-svg_00000040546361132716843220000017045972676727547812_" transform="translate(599.53125, 201.00000)">
					<g id="callout-line-svg_00000003077914227885531800000007144469107060443046_">
						<path class="st7" d="M-328.5-142.3h11.7"/>
						<path class="st7" d="M-318.9-144l2.1,1.7l-2.1,1.7"/>
					</g>
				</g>
				<text transform="matrix(1 0 0 1 199.8526 55.3923)" class="st15"><tspan x="0" y="0" class="st14 st11 st16">1 out of 3 requests were </tspan><tspan x="13.5" y="7.6" class="st14 st11 st16">denied in 2020</tspan></text>
				<g>
					<defs>
						<rect id="SVGID_00000070095822132819321020000007662782872903666060_" x="15.2" y="15.1" width="320.9" height="161.1"/>
					</defs>
					<clipPath id="SVGID_00000056386819800257833610000012308556614889432224_">
						<use xlink:href="#SVGID_00000070095822132819321020000007662782872903666060_"  style="overflow:visible;"/>
					</clipPath>
					
						<g id="tooltip-layer-svg_00000141441011796195273070000002998788697730212770_" transform="translate(0.00000, 104.00000)" style="clip-path:url(#SVGID_00000056386819800257833610000012308556614889432224_);">
						<g id="group-svg_00000093894501211568230190000009671923800753600695_" transform="translate(28.53125, 7)">
						</g>
					</g>
				</g>
			</g>
			<g id="footer-svg_00000101809438527209473860000001563253694494254740_">
				<text transform="matrix(1 0 0 1 15.2276 190.1101)" class="st18 st11 st19">Chart:</text>
				<text transform="matrix(1 0 0 1 29.2925 190.1101)" class="st15"><tspan x="0" y="0" class="st18 st11 st19 st20">​</tspan><tspan x="0" y="0" class="st18 st11 st19"> </tspan><tspan x="1.2" y="0" class="st18 st11 st19 st20">​</tspan></text>
				<text transform="matrix(1 0 0 1 30.5225 190.1101)" class="st18 st11 st19">Luiz Fernando Toledo/Fiquem Sabendo</text>
				<text transform="matrix(1 0 0 1 122.3833 190.1101)" class="st15"><tspan x="0" y="0" class="st18 st11 st19 st20">​</tspan><tspan x="0" y="0" class="st18 st11 st19"> </tspan><tspan x="1.2" y="0" class="st18 st11 st19 st20">​</tspan></text>
				<text transform="matrix(1 0 0 1 123.6133 190.1101)" class="st18 st11 st19">•</text>
				<text transform="matrix(1 0 0 1 125.2837 190.1101)" class="st15"><tspan x="0" y="0" class="st18 st11 st19 st20">​</tspan><tspan x="0" y="0" class="st18 st11 st19"> </tspan><tspan x="1.2" y="0" class="st18 st11 st19 st20">​</tspan></text>
				<text transform="matrix(1 0 0 1 126.5137 190.1101)" class="st18 st11 st19">Source</text>
				<text transform="matrix(1 0 0 1 142.6421 190.1101)" class="st18 st11 st19">:</text>
				<text transform="matrix(1 0 0 1 143.6548 190.1101)" class="st15"><tspan x="0" y="0" class="st18 st11 st19 st20">​</tspan><tspan x="0" y="0" class="st18 st11 st19"> </tspan><tspan x="1.2" y="0" class="st18 st11 st19 st20">​</tspan></text>
				<text transform="matrix(1 0 0 1 144.8848 190.1101)" class="st18 st11 st19">CGU</text>
				<text transform="matrix(1 0 0 1 155.1548 190.1101)" class="st15"><tspan x="0" y="0" class="st18 st11 st19 st20">​</tspan><tspan x="0" y="0" class="st18 st11 st19"> </tspan><tspan x="1.2" y="0" class="st18 st11 st19 st20">​</tspan></text>
				<text transform="matrix(1 0 0 1 156.3853 190.1101)" class="st18 st11 st19">•</text>
				<text transform="matrix(1 0 0 1 158.0552 190.1101)" class="st15"><tspan x="0" y="0" class="st18 st11 st19 st20">​</tspan><tspan x="0" y="0" class="st18 st11 st19"> </tspan><tspan x="1.2" y="0" class="st18 st11 st19 st20">​</tspan></text>
				<text transform="matrix(1 0 0 1 189.2686 190.1101)" class="st15"><tspan x="0" y="0" class="st18 st11 st19 st20">​</tspan><tspan x="0" y="0" class="st18 st11 st19"> </tspan><tspan x="1.2" y="0" class="st18 st11 st19 st20">​</tspan></text>
			</g>
		</g>
	</g>
</g>
</svg>
