<svg xmlns="http://www.w3.org/2000/svg" xmlns:xlink="http://www.w3.org/1999/xlink" id="exportSvg" width="600" height="400"><defs/><g><g id="__svelte-dw-svg" clip-path="url(#rect-mask-__svelte-dw-QiEwCFtTf46CvYTkZVZiC)"><clipPath id="rect-mask-__svelte-dw-QiEwCFtTf46CvYTkZVZiC"><rect x="0" y="0" width="600" height="400"/></clipPath><g id="chart-svg"><rect width="58.890625" height="236" transform="translate(454.078125, 111)" fill="rgba(136,136,136,0.1)" style="fill: rgb(136, 136, 136); fill-opacity: 0.1;"/><g id="svg-main-svg" clip-path="url(#rect-mask-svg-main--wKPAdvAnZrSOebzWm-Ct)" transform="translate(0.00000, 104.00000)"><clipPath id="rect-mask-svg-main--wKPAdvAnZrSOebzWm-Ct"><rect x="0" y="0" width="600" height="263"/></clipPath><g id="group-svg" transform="translate(35.28125, 7)"><g id="y-grid-lines-svg grid-y-svg datawrapper-4KiVb-1fn7900-svg"><line x1="0" x2="511.71875" y1="0" y2="0" transform="translate(0, 188.8)" style="fill: none; stroke-width: 1; stroke-linejoin: miter; stroke-linecap: butt; stroke: rgb(231, 231, 231);"/><line x1="0" x2="511.71875" y1="0" y2="0" transform="translate(0, 141.6)" style="fill: none; stroke-width: 1; stroke-linejoin: miter; stroke-linecap: butt; stroke: rgb(231, 231, 231);"/><line x1="0" x2="511.71875" y1="0" y2="0" transform="translate(0, 94.4)" style="fill: none; stroke-width: 1; stroke-linejoin: miter; stroke-linecap: butt; stroke: rgb(231, 231, 231);"/><line x1="0" x2="511.71875" y1="0" y2="0" transform="translate(0, 47.19999999999999)" style="fill: none; stroke-width: 1; stroke-linejoin: miter; stroke-linecap: butt; stroke: rgb(231, 231, 231);"/><line x1="0" x2="511.71875" y1="0" y2="0" transform="translate(0, 0)" style="fill: none; stroke-width: 1; stroke-linejoin: miter; stroke-linecap: butt; stroke: rgb(231, 231, 231);"/></g><path d="M9.623861298853953,44.25C30.143487440616127,55.560707667114315,50.6631135823783,66.87141533422863,71.18273972414048,72.51293458559894C91.70236586590265,78.15445383696925,112.22199200766481,77.64483952741007,132.74161814942698,80.97521346265441C153.26124429118914,84.30558739789875,173.78087043295133,92.29606282408308,194.3004965747135,92.49517819706497C214.82012271647565,92.69429357004687,235.33974885823784,92.59473588355591,255.859375,92.7938512565378C276.37900114176216,92.9929666295197,296.8986272835244,101.02890442890444,317.41825342528654,101.02890442890444C337.9378795670487,101.02890442890444,358.45750570881086,61.738144264580086,378.977131850573,61.738144264580086C399.4967579923352,61.738144264580086,420.0163841340974,141.0866825673703,440.53601027585955,141.0866825673703C461.0556364176217,141.0866825673703,481.5752625593839,118.80452558002008,502.09488870114603,96.52236859266986L502.09488870114603,139.47763140733014C481.5752625593839,117.21857790508189,461.0556364176217,94.95952440283364,440.53601027585955,94.95952440283364C420.0163841340974,94.95952440283364,399.4967579923352,174.26185573541989,378.977131850573,174.26185573541989C358.45750570881086,174.26185573541989,337.9378795670487,134.9710955710956,317.41825342528654,134.9710955710956C296.8986272835244,134.9710955710956,276.37900114176216,143.0070333704803,255.859375,143.20614874346217C235.33974885823784,143.40526411644404,214.82012271647565,143.30570642995312,194.3004965747135,143.504821802935C173.78087043295133,143.70393717591688,153.26124429118914,151.69441260210127,132.74161814942698,155.02478653734562C112.22199200766481,158.35516047258997,91.70236586590265,157.84554616303078,71.18273972414048,163.48706541440106C50.6631135823783,169.12858466577134,30.143487440616127,180.43929233288569,9.623861298853953,191.75Z" style="mix-blend-mode: normal; fill: rgb(204, 204, 204); opacity: 0.3;"/><g id="lines-svg"><g id="Não-svg se-svg trata-svg de-svg solicitação-svg de-svg informação-svg"><path d="M9.623861298853953,191.75C30.143487440616127,180.43929233288569,50.6631135823783,169.12858466577134,71.18273972414048,163.48706541440106C91.70236586590265,157.84554616303078,112.22199200766481,158.35516047258997,132.74161814942698,155.02478653734562C153.26124429118914,151.69441260210127,173.78087043295133,143.70393717591688,194.3004965747135,143.504821802935C214.82012271647565,143.30570642995312,235.33974885823784,143.40526411644404,255.859375,143.20614874346217C276.37900114176216,143.0070333704803,296.8986272835244,134.9710955710956,317.41825342528654,134.9710955710956C337.9378795670487,134.9710955710956,358.45750570881086,174.26185573541989,378.977131850573,174.26185573541989C399.4967579923352,174.26185573541989,420.0163841340974,94.95952440283364,440.53601027585955,94.95952440283364C461.0556364176217,94.95952440283364,481.5752625593839,117.21857790508189,502.09488870114603,139.47763140733014" stroke="rgb(255,229,156)" id="Não se trata de solicitação de informação" style="mix-blend-mode: normal; fill: none; stroke-width: 4; stroke-linejoin: round; stroke-linecap: round; stroke: rgb(255, 229, 156);"/></g><g id="outros_motivos_para_negativa-svg"><path d="M9.623861298853953,44.25C30.143487440616127,55.560707667114315,50.6631135823783,66.87141533422863,71.18273972414048,72.51293458559894C91.70236586590265,78.15445383696925,112.22199200766481,77.64483952741007,132.74161814942698,80.97521346265441C153.26124429118914,84.30558739789875,173.78087043295133,92.29606282408308,194.3004965747135,92.49517819706497C214.82012271647565,92.69429357004687,235.33974885823784,92.59473588355591,255.859375,92.7938512565378C276.37900114176216,92.9929666295197,296.8986272835244,101.02890442890444,317.41825342528654,101.02890442890444C337.9378795670487,101.02890442890444,358.45750570881086,61.738144264580086,378.977131850573,61.738144264580086C399.4967579923352,61.738144264580086,420.0163841340974,141.0866825673703,440.53601027585955,141.0866825673703C461.0556364176217,141.0866825673703,481.5752625593839,118.80452558002008,502.09488870114603,96.52236859266986" stroke="rgb(211,187,116)" id="outros_motivos_para_negativa" style="mix-blend-mode: normal; fill: none; stroke-width: 2; stroke-linejoin: round; stroke-linecap: round; stroke-dasharray: 0.5, 4; stroke: rgb(211, 187, 116);"/></g></g><g id="line-symbols-svg"/><g id="lbl-connect-lines-svg"/><g id="x-tick-labels-svg grid-x-svg text-axis-svg datawrapper-4KiVb-63wp0p-svg" transform="translate(0, 241)"><text transform="translate(10, 12) translate(-13.48438, 0.00000) translate(13.484375, 0)" style="text-anchor: middle;"><tspan fill="rgb(116, 116, 116)" style="font-family: Roboto; font-weight: 400; font-size: 12px;" x="0" dominant-baseline="auto" y="0">2013</tspan></text><text transform="translate(71.46484375, 12) translate(-13.61719, 0.00000) translate(13.6171875, 0)" style="text-anchor: middle;"><tspan fill="rgb(116, 116, 116)" style="font-family: Roboto; font-weight: 400; font-size: 12px;" x="0" dominant-baseline="auto" y="0">2014</tspan></text><text transform="translate(132.9296875, 12) translate(-13.61719, 0.00000) translate(13.6171875, 0)" style="text-anchor: middle;"><tspan fill="rgb(116, 116, 116)" style="font-family: Roboto; font-weight: 400; font-size: 12px;" x="0" dominant-baseline="auto" y="0">2015</tspan></text><text transform="translate(194.39453125, 12) translate(-13.61719, 0.00000) translate(13.6171875, 0)" style="text-anchor: middle;"><tspan fill="rgb(116, 116, 116)" style="font-family: Roboto; font-weight: 400; font-size: 12px;" x="0" dominant-baseline="auto" y="0">2016</tspan></text><text transform="translate(255.859375, 12) translate(-13.61719, 0.00000) translate(13.6171875, 0)" style="text-anchor: middle;"><tspan fill="rgb(116, 116, 116)" style="font-family: Roboto; font-weight: 400; font-size: 12px;" x="0" dominant-baseline="auto" y="0">2017</tspan></text><text transform="translate(317.32421875, 12) translate(-13.61719, 0.00000) translate(13.6171875, 0)" style="text-anchor: middle;"><tspan fill="rgb(116, 116, 116)" style="font-family: Roboto; font-weight: 400; font-size: 12px;" x="0" dominant-baseline="auto" y="0">2018</tspan></text><text transform="translate(378.7890625, 12) translate(-13.48438, 0.00000) translate(13.484375, 0)" style="text-anchor: middle;"><tspan fill="rgb(116, 116, 116)" style="font-family: Roboto; font-weight: 400; font-size: 12px;" x="0" dominant-baseline="auto" y="0">2019</tspan></text><text transform="translate(440.25390625, 12) translate(-13.61719, 0.00000) translate(13.6171875, 0)" style="text-anchor: middle;"><tspan fill="rgb(116, 116, 116)" style="font-family: Roboto; font-weight: 400; font-size: 12px;" x="0" dominant-baseline="auto" y="0">2020</tspan></text><text transform="translate(501.71875, 12) translate(-13.48438, 0.00000) translate(13.484375, 0)" style="text-anchor: middle;"><tspan fill="rgb(116, 116, 116)" style="font-family: Roboto; font-weight: 400; font-size: 12px;" x="0" dominant-baseline="auto" y="0">2021</tspan></text></g><g id="x-base-lines-svg grid-x-svg datawrapper-4KiVb-1io9s9d-svg"/><g id="y-tick-labels-svg grid-y-svg number-axis-svg datawrapper-4KiVb-yhj5g2-svg" transform="translate(-5, 0)"><text transform="translate(0, 240) translate(-7.01563, 0.00000) translate(7.015625, 0)" style="text-anchor: end;"><tspan fill="rgb(162, 162, 162)" style="font-family: Roboto; font-weight: 400; font-size: 12px;" x="0" dominant-baseline="auto" y="0">0</tspan></text><text transform="translate(0, 192.8) translate(-13.75000, 0.00000) translate(13.75, 0)" style="text-anchor: end;"><tspan fill="rgb(162, 162, 162)" style="font-family: Roboto; font-weight: 400; font-size: 12px;" x="0" dominant-baseline="auto" y="0">20</tspan></text><text transform="translate(0, 145.6) translate(-13.75000, 0.00000) translate(13.75, 0)" style="text-anchor: end;"><tspan fill="rgb(162, 162, 162)" style="font-family: Roboto; font-weight: 400; font-size: 12px;" x="0" dominant-baseline="auto" y="0">40</tspan></text><text transform="translate(0, 98.4) translate(-13.75000, 0.00000) translate(13.75, 0)" style="text-anchor: end;"><tspan fill="rgb(162, 162, 162)" style="font-family: Roboto; font-weight: 400; font-size: 12px;" x="0" dominant-baseline="auto" y="0">60</tspan></text><text transform="translate(0, 51.19999999999999) translate(-13.75000, 0.00000) translate(13.75, 0)" style="text-anchor: end;"><tspan fill="rgb(162, 162, 162)" style="font-family: Roboto; font-weight: 400; font-size: 12px;" x="0" dominant-baseline="auto" y="0">80</tspan></text><text transform="translate(0, 4) translate(-29.23438, 0.00000) translate(29.234375, 0)" style="text-anchor: end;"><tspan fill="rgb(162, 162, 162)" style="font-family: Roboto; font-weight: 400; font-size: 12px;" x="0" dominant-baseline="auto" y="0">100%</tspan></text></g><g id="y-base-lines-svg grid-y-svg datawrapper-4KiVb-1io9s9d-svg"><line x1="511.71875" x2="0" y1="0" y2="0" transform="translate(0, 236)" style="fill: none; stroke-width: 1; stroke-linejoin: miter; stroke-linecap: square; stroke: rgb(24, 24, 24);"/></g></g></g><text transform="translate(547, 245.46875)" id="Não se trata de solicitação de informação"><tspan fill="rgb(24,24,24)" x="0" y="12" style="font-family: Roboto; font-weight: 400; font-size: 12px;">Not a</tspan><tspan fill="rgb(24,24,24)" x="0" y="26" style="font-family: Roboto; font-weight: 400; font-size: 12px;">FOIA</tspan><tspan fill="rgb(24,24,24)" x="0" y="40" style="font-family: Roboto; font-weight: 400; font-size: 12px;">request</tspan></text><text transform="translate(547, 202.515625)" id="outros_motivos_para_negativa"><tspan fill="rgb(24,24,24)" x="0" y="12" style="font-family: Roboto; font-weight: 400; font-size: 12px;">Other</tspan><tspan fill="rgb(24,24,24)" x="0" y="26" style="font-family: Roboto; font-weight: 400; font-size: 12px;">reasons</tspan></text><g id="tooltip-layer-svg" clip-path="url(#rect-mask-tooltip-layer-r3G4UmxWpcuGveGRdMCe8)" transform="translate(0.00000, 104.00000)"><clipPath id="rect-mask-tooltip-layer-r3G4UmxWpcuGveGRdMCe8"><rect x="0" y="0" width="600" height="263"/></clipPath><g id="group-svg" transform="translate(35.28125, 7)"/></g></g><g id="header-svg"><text transform="translate(0, 0)"><tspan fill="rgb(0,0,0)" x="0" y="22" style="font-family: Roboto; font-weight: 700; font-size: 22px;">For the first time, in 2020, 'not a FOIA request' becomes the</tspan><tspan fill="rgb(0,0,0)" x="0" y="47" style="font-family: Roboto; font-weight: 700; font-size: 22px;">most common reason to deny requests</tspan></text><text transform="translate(0, 60)"><tspan fill="rgb(24,24,24)" x="0" y="14" style="font-family: Roboto; font-weight: 400; font-size: 14px;">The government uses that label when it considers that the request was actually a complaint</tspan><tspan fill="rgb(24,24,24)" x="0" y="31" style="font-family: Roboto; font-weight: 400; font-size: 14px;">about a public service or something other than asking for information</tspan></text></g><g id="footer-svg"><text transform="translate(0, 387)"><tspan fill="rgb(136,136,136)" x="0" y="11" style="font-family: Roboto; font-weight: 400; font-size: 11px;">Chart:</tspan><tspan fill="rgb(136,136,136)" style="font-family: Roboto; font-weight: 400; font-size: 11px;">​ ​</tspan><tspan fill="rgb(136,136,136)" style="font-family: Roboto; font-weight: 400; font-size: 11px;">Luiz Fernando Toledo</tspan><tspan fill="rgb(136,136,136)" style="font-family: Roboto; font-weight: 400; font-size: 11px;">​ ​</tspan><tspan fill="rgb(136,136,136)" style="font-family: Roboto; font-weight: 400; font-size: 11px;">•</tspan><tspan fill="rgb(136,136,136)" style="font-family: Roboto; font-weight: 400; font-size: 11px;">​ ​</tspan><tspan fill="rgb(136,136,136)" style="font-family: Roboto; font-weight: 400; font-size: 11px;">Source</tspan><tspan fill="rgb(136,136,136)" style="font-family: Roboto; font-weight: 400; font-size: 11px;">:</tspan><tspan fill="rgb(136,136,136)" style="font-family: Roboto; font-weight: 400; font-size: 11px;">​ ​</tspan><tspan fill="rgb(136,136,136)" style="font-family: Roboto; font-weight: 400; font-size: 11px;">CGU</tspan><tspan fill="rgb(136,136,136)" style="font-family: Roboto; font-weight: 400; font-size: 11px;">​ ​</tspan><tspan fill="rgb(136,136,136)" style="font-family: Roboto; font-weight: 400; font-size: 11px;">•</tspan><tspan fill="rgb(136,136,136)" style="font-family: Roboto; font-weight: 400; font-size: 11px;">​ ​</tspan><tspan fill="rgb(136,136,136)" style="font-family: Roboto; font-weight: 400; font-size: 11px;">Created with</tspan><tspan fill="rgb(136,136,136)" style="font-family: Roboto; font-weight: 400; font-size: 11px;">​ ​</tspan><tspan fill="rgb(136,136,136)" style="font-family: Roboto; font-weight: 400; font-size: 11px;">Datawrapper</tspan></text></g></g></g></svg>