<?xml version="1.0" encoding="utf-8"?>
<!-- Generator: Adobe Illustrator 26.0.3, SVG Export Plug-In . SVG Version: 6.00 Build 0)  -->
<svg version="1.1" id="Layer_1" xmlns="http://www.w3.org/2000/svg" xmlns:xlink="http://www.w3.org/1999/xlink" x="0px" y="0px"
	 viewBox="0 0 805 600" style="enable-background:new 0 0 805 600;" xml:space="preserve">
<style type="text/css">
	.st0{fill:#F8E71C;stroke:#FFFFFF;}
	.st1{fill:#D0021B;stroke:#FFFFFF;}
	.st2{font-family:'Arial-BoldMT';}
	.st3{font-size:16px;}
	.st4{enable-background:new    ;}
	.st5{font-size:14px;}
	.st6{fill:#D0021B;}
	.st7{font-size:15px;}
	.st8{font-size:22.14px;}
	.st9{font-family:'ArialMT';}
	.st10{fill:none;}
	.st11{font-size:19px;}
</style>
<path class="st0" d="M80.5,164.9c43.4,0,78.5,35.1,78.5,78.5c0,32.2-19.7,61.1-49.6,73l-3.7-9.3c35.2-13.9,52.4-53.7,38.5-88.9
	c-10.4-26.1-35.6-43.3-63.7-43.3V164.9z"/>
<path class="st1" d="M109.4,316.4c-40.3,16-85.9-3.8-101.9-44.1s3.8-85.9,44.1-101.9c9.2-3.6,19-5.5,28.9-5.5v10
	c-37.8,0-68.5,30.7-68.5,68.5s30.7,68.5,68.5,68.5c8.6,0,17.2-1.6,25.2-4.8L109.4,316.4z"/>
<text transform="matrix(1 0 0 1 19.2527 154.0376)" class="st2 st3">Caixa Econômica</text>
<text transform="matrix(1 0 0 1 13.4764 249.3097)" class="st4"><tspan x="0" y="0" class="st2 st5">56% </tspan><tspan x="31.9" y="0" class="st6 st2 st5">denied</tspan><tspan x="77" y="0" class="st2 st5"> requests</tspan></text>
<text transform="matrix(1 0 0 1 228.0853 250.9207)" class="st2 st5">51% </text>
<path class="st0" d="M241.5,164.9c43.4,0,78.5,35.1,78.5,78.5c0,41.4-32.2,75.7-73.6,78.3l-0.6-10c37.8-2.4,66.4-34.9,64.1-72.7
	c-2.3-36-32.2-64.1-68.4-64.1V164.9z"/>
<path class="st1" d="M246.4,321.8c-43.3,2.7-80.6-30.1-83.3-73.4s30.1-80.6,73.4-83.3c1.6-0.1,3.3-0.2,4.9-0.2v10
	c-37.8,0-68.5,30.7-68.5,68.5s30.7,68.5,68.5,68.5c1.4,0,2.9,0,4.3-0.1L246.4,321.8z"/>
<text transform="matrix(1 0 0 1 225.1724 154.0377)" class="st2 st3">GSI</text>
<path class="st0" d="M402.5,164.9c43.4,0,78.5,35.1,78.5,78.5s-35.1,78.5-78.5,78.5c-8.2,0-16.4-1.3-24.3-3.8l3.1-9.5
	c36,11.7,74.6-8,86.3-44s-8-74.6-44-86.3c-6.8-2.2-14-3.4-21.2-3.4v-10H402.5z"/>
<path class="st1" d="M378.2,318.1c-41.2-13.4-63.8-57.7-50.4-98.9c10.6-32.4,40.7-54.3,74.7-54.3v10c-37.8,0-68.5,30.7-68.5,68.5
	c0,29.7,19.1,56,47.3,65.1L378.2,318.1z"/>
<path class="st0" d="M563.5,164.9c43.4,0,78.5,35.1,78.5,78.5s-35.1,78.5-78.5,78.5c-11.6,0-23-2.6-33.4-7.5l4.3-9
	c34.2,16.1,75,1.4,91.1-32.8s1.4-75-32.8-91.1c-9.2-4.3-19.1-6.6-29.2-6.6V164.9z"/>
<path class="st1" d="M530.1,314.5C490.8,296,474,249.2,492.5,210c12.9-27.5,40.6-45.1,71-45.1v10c-37.8,0-68.5,30.7-68.5,68.5
	c0,26.5,15.3,50.7,39.3,62L530.1,314.5z"/>
<path class="st0" d="M724.5,164.9c43.4,0,78.5,35.1,78.5,78.5s-35.1,78.5-78.5,78.5c-25.1,0-48.7-12-63.5-32.4l8.1-5.9
	c22.2,30.6,65.1,37.4,95.7,15.2c30.6-22.2,37.4-65.1,15.2-95.7c-13-17.7-33.6-28.2-55.5-28.2V164.9z"/>
<path class="st1" d="M661,289.6c-25.5-35.1-17.7-84.2,17.4-109.7c13.4-9.7,29.6-15,46.1-15v10c-37.8,0-68.5,30.7-68.5,68.5
	c0,14.5,4.6,28.6,13.1,40.3L661,289.6z"/>
<text transform="matrix(1 0 0 1 706.9849 250.9207)" class="st2 st5">35% </text>
<text transform="matrix(1 0 0 1 690.5318 154.0377)" class="st2 st3">Itamaraty</text>
<path class="st0" d="M80.5,375.5c43.4,0,78.5,35.1,78.5,78.5s-35.1,78.5-78.5,78.5c-26.9,0-51.9-13.7-66.3-36.4l8.4-5.4
	c20.3,31.9,62.6,41.4,94.5,21.1s41.5-62.6,21.2-94.5c-12.5-19.8-34.3-31.8-57.8-31.8V375.5z"/>
<path class="st1" d="M14.2,496.1C-9,459.5,1.8,411,38.4,387.7c12.6-8,27.2-12.2,42.1-12.2v10C42.7,385.5,12,416.2,12,454
	c0,13,3.7,25.7,10.7,36.7L14.2,496.1z"/>
<path class="st0" d="M241.5,375.5c43.4,0,78.5,35.1,78.5,78.5s-35.1,78.5-78.5,78.5c-28.6,0-55-15.6-68.8-40.7l8.8-4.8
	c18.2,33.2,59.9,45.3,93,27s45.3-59.8,27-93c-12-21.9-35-35.5-60-35.5V375.5z"/>
<path class="st1" d="M172.7,491.8c-20.9-38-7-85.7,31-106.6c11.6-6.4,24.6-9.7,37.8-9.7v10c-37.8,0-68.5,30.7-68.5,68.5
	c0,11.5,2.9,22.9,8.5,33L172.7,491.8z"/>
<text transform="matrix(1 0 0 1 386.454 465.4377)" class="st2 st7">32% </text>
<text transform="matrix(1 0 0 1 367.2852 366.8419)" class="st2 st3">Exército</text>
<path class="st0" d="M402.5,375.5c43.4,0,78.5,35.1,78.5,78.5s-35.1,78.5-78.5,78.5c-30.4,0-58.1-17.6-71-45.1l9-4.3
	c16.1,34.3,56.9,49,91.2,32.9c34.3-16.1,48.9-56.9,32.8-91.2c-11.3-24-35.4-39.3-62-39.3V375.5z"/>
<path class="st1" d="M331.5,487.4c-18.5-39.2-1.7-86,37.6-104.4c10.4-4.9,21.8-7.5,33.4-7.5v10c-37.8,0-68.5,30.7-68.5,68.5
	c0,10.1,2.2,20,6.5,29.2L331.5,487.4z"/>
<text transform="matrix(1 0 0 1 546.492 466.0584)" class="st2 st7">30% </text>
<text transform="matrix(1 0 0 1 513.3649 366.8427)" class="st2 st3">Banco Central</text>
<path class="st0" d="M563.5,375.5c43.4,0,78.5,35.1,78.5,78.5s-35.1,78.5-78.5,78.5c-34,0-64.1-21.9-74.7-54.2l9.5-3.1
	c11.7,36,50.3,55.7,86.3,44c36-11.7,55.7-50.3,44-86.3c-9.1-28.3-35.4-47.4-65.1-47.4V375.5z"/>
<path class="st1" d="M488.8,478.3c-13.4-41.3,9.2-85.6,50.4-99c7.8-2.5,16-3.8,24.3-3.8v10c-37.8,0-68.5,30.7-68.5,68.5
	c0,7.2,1.1,14.3,3.4,21.2L488.8,478.3z"/>
<path class="st0" d="M724.5,375.5c43.4,0,78.5,35.1,78.5,78.5s-35.1,78.5-78.5,78.5c-35.8,0-67.1-24.3-76-59l9.7-2.5
	c9.4,36.6,46.7,58.7,83.4,49.3c36.7-9.4,58.7-46.7,49.2-83.3c-7.7-30.3-35-51.5-66.3-51.5V375.5z"/>
<path class="st1" d="M648.5,473.5c-10.8-42,14.5-84.8,56.5-95.6c6.4-1.6,12.9-2.5,19.5-2.5v10c-37.8,0-68.5,30.7-68.5,68.5
	c0,5.7,0.7,11.5,2.2,17L648.5,473.5z"/>
<text transform="matrix(1 0 0 1 386.7097 250.9208)" class="st2 st5">45% </text>
<text transform="matrix(1 0 0 1 341.7625 154.0379)" class="st2 st3">Banco do Brasil</text>
<text transform="matrix(1 0 0 1 548.9733 250.9205)" class="st2 st5">43%</text>
<text transform="matrix(1 0 0 1 545.3118 154.0378)" class="st2 st3">AGU</text>
<text transform="matrix(1 0 0 1 66.3787 466.6789)" class="st2 st7">34% </text>
<text transform="matrix(1 0 0 1 34.8035 366.8426)" class="st2 st3">Transpetro</text>
<text transform="matrix(1 0 0 1 226.4165 467.2993)" class="st2 st7">33% </text>
<text transform="matrix(1 0 0 1 216.2126 366.8419)" class="st2 st3">FINEP</text>
<text transform="matrix(1 0 0 1 710.591 464.8171)" class="st2 st7">29% </text>
<text transform="matrix(1 0 0 1 668.3512 366.8426)" class="st2 st3">Polícia Federal</text>
<text transform="matrix(1 0 0 1 20.4242 33.4408)" class="st2 st8">Top 10 most opaque Brazilian public bodies in the federal government </text>
<text transform="matrix(1 0 0 1 20.4243 575.6827)" class="st9 st3">Source: Controladoria-Geral da União (CGU)</text>
<g id="ai2html-settings">
	<rect x="-450" class="st10" width="400" height="418"/>
	<text transform="matrix(1 0 0 1 -450 10.6499)" class="st7" style="font-family:'MyriadPro-Regular';">ai2html-settings</text>
	<text transform="matrix(1 0 0 1 -450 29.6499)" class="st7" style="font-family:'MyriadPro-Regular';">settings_version: 0.106.0</text>
	<text transform="matrix(1 0 0 1 -450 48.6499)" class="st7" style="font-family:'MyriadPro-Regular';">image_format: auto</text>
	<text transform="matrix(1 0 0 1 -450 67.6499)" class="st7" style="font-family:'MyriadPro-Regular';">responsiveness: fixed</text>
	<text transform="matrix(1 0 0 1 -450 86.6499)" class="st7" style="font-family:'MyriadPro-Regular';">output: one-file</text>
	<text transform="matrix(1 0 0 1 -450 105.6499)" class="st7" style="font-family:'MyriadPro-Regular';">html_output_path: /ai2html-output/</text>
	<text transform="matrix(1 0 0 1 -450 124.6499)" class="st7" style="font-family:'MyriadPro-Regular';">html_output_extension: .html</text>
	<text transform="matrix(1 0 0 1 -450 143.6499)" class="st7" style="font-family:'MyriadPro-Regular';">image_output_path: </text>
	<text transform="matrix(1 0 0 1 -450 162.6499)" class="st7" style="font-family:'MyriadPro-Regular';">local_preview_template: </text>
	<text transform="matrix(1 0 0 1 -450 181.6499)" class="st7" style="font-family:'MyriadPro-Regular';">png_number_of_colors: 128</text>
	<text transform="matrix(1 0 0 1 -450 200.6499)" class="st7" style="font-family:'MyriadPro-Regular';">jpg_quality: 60</text>
	<text transform="matrix(1 0 0 1 -450 219.6499)" class="st7" style="font-family:'MyriadPro-Regular';">headline: </text>
	<text transform="matrix(1 0 0 1 -450 238.6499)" class="st7" style="font-family:'MyriadPro-Regular';">leadin: </text>
	<text transform="matrix(1 0 0 1 -450 257.6499)" class="st7" style="font-family:'MyriadPro-Regular';">notes: </text>
	<text transform="matrix(1 0 0 1 -450 276.6499)" class="st7" style="font-family:'MyriadPro-Regular';">sources: </text>
	<text transform="matrix(1 0 0 1 -450 295.6499)" class="st7" style="font-family:'MyriadPro-Regular';">credit: </text>
</g>
<text transform="matrix(1 0 0 1 20.4243 67.7187)"><tspan x="0" y="0" class="st9 st11">Shares of </tspan><tspan x="86.6" y="0" class="st6 st2 st11">denied</tspan><tspan x="147.8" y="0" class="st9 st11"> FOIA requests from 2013 to 2021</tspan></text>
</svg>
