<svg xmlns="http://www.w3.org/2000/svg" width="805" height="600"><rect width="805" height="600" x="0" y="0" fill="#FFFFFF" id="backgorund"/><g id="viz"><g transform="translate(0,0)"><g transform="translate(50,20)"><g id="Fines" fill="#ff7f0e"><rect x="0.9986595174262334" y="123.67599999999999" width="81.66815609174859" height="436.324"/><rect x="83.6654751266011" y="142.35199999999998" width="81.66815609174859" height="417.648"/><rect x="166.33229073577596" y="90.66400000000003" width="81.66815609174859" height="469.33599999999996"/><rect x="248.9991063449508" y="68.76800000000001" width="81.66815609174859" height="491.23199999999997"/><rect x="331.6659219541257" y="114.1" width="81.66815609174859" height="445.9"/><rect x="414.33273756330055" y="136.724" width="81.66815609174859" height="423.276"/><rect x="496.9995531724754" y="250.236" width="81.66815609174859" height="309.764"/><rect x="579.6663687816504" y="302.84799999999996" width="81.66815609174859" height="257.15200000000004"/><rect x="662.3331843908252" y="309.932" width="81.66815609174859" height="250.06799999999998"/></g><g id="Expired" fill="#1f77b4"><rect x="0.9986595174262334" y="81.928" width="81.66815609174859" height="41.74800000000005"/><rect x="83.6654751266011" y="87.556" width="81.66815609174859" height="54.79599999999999"/><rect x="166.33229073577596" y="35.89600000000003" width="81.66815609174859" height="54.76799999999997"/><rect x="248.9991063449508" y="21.840000000000018" width="81.66815609174859" height="46.928"/><rect x="331.6659219541257" y="82.26400000000001" width="81.66815609174859" height="31.836000000000013"/><rect x="414.33273756330055" y="98.784" width="81.66815609174859" height="37.93999999999994"/><rect x="496.9995531724754" y="202.608" width="81.66815609174859" height="47.62799999999993"/><rect x="579.6663687816504" y="276.528" width="81.66815609174859" height="26.32000000000005"/><rect x="662.3331843908252" y="291.76" width="81.66815609174859" height="18.172000000000025"/></g><g id="xAxis" transform="translate(0,560)" fill="none" font-size="10" font-family="sans-serif" text-anchor="middle"><path class="domain" stroke="currentColor" d="M0,0H745"/><g class="tick" opacity="1" transform="translate(41.832737563300526,0)"><line stroke="currentColor" y2="6"/><text fill="currentColor" y="9" dy="0.71em">2013</text></g><g class="tick" opacity="1" transform="translate(124.49955317247539,0)"><line stroke="currentColor" y2="6"/><text fill="currentColor" y="9" dy="0.71em">2014</text></g><g class="tick" opacity="1" transform="translate(207.16636878165025,0)"><line stroke="currentColor" y2="6"/><text fill="currentColor" y="9" dy="0.71em">2015</text></g><g class="tick" opacity="1" transform="translate(289.83318439082507,0)"><line stroke="currentColor" y2="6"/><text fill="currentColor" y="9" dy="0.71em">2016</text></g><g class="tick" opacity="1" transform="translate(372.5,0)"><line stroke="currentColor" y2="6"/><text fill="currentColor" y="9" dy="0.71em">2017</text></g><g class="tick" opacity="1" transform="translate(455.1668156091748,0)"><line stroke="currentColor" y2="6"/><text fill="currentColor" y="9" dy="0.71em">2018</text></g><g class="tick" opacity="1" transform="translate(537.8336312183496,0)"><line stroke="currentColor" y2="6"/><text fill="currentColor" y="9" dy="0.71em">2019</text></g><g class="tick" opacity="1" transform="translate(620.5004468275247,0)"><line stroke="currentColor" y2="6"/><text fill="currentColor" y="9" dy="0.71em">2020</text></g><g class="tick" opacity="1" transform="translate(703.1672624366995,0)"><line stroke="currentColor" y2="6"/><text fill="currentColor" y="9" dy="0.71em">2021</text></g></g><g id="yAxis" fill="none" font-size="10" font-family="sans-serif" text-anchor="end"><path class="domain" stroke="currentColor" d="M0,560V0"/><g class="tick" opacity="1" transform="translate(0,560)"><line stroke="currentColor" x2="-6"/><text fill="currentColor" x="-9" dy="0.32em">0</text></g><g class="tick" opacity="1" transform="translate(0,504)"><line stroke="currentColor" x2="-6"/><text fill="currentColor" x="-9" dy="0.32em">2,000</text></g><g class="tick" opacity="1" transform="translate(0,448)"><line stroke="currentColor" x2="-6"/><text fill="currentColor" x="-9" dy="0.32em">4,000</text></g><g class="tick" opacity="1" transform="translate(0,392)"><line stroke="currentColor" x2="-6"/><text fill="currentColor" x="-9" dy="0.32em">6,000</text></g><g class="tick" opacity="1" transform="translate(0,336)"><line stroke="currentColor" x2="-6"/><text fill="currentColor" x="-9" dy="0.32em">8,000</text></g><g class="tick" opacity="1" transform="translate(0,280)"><line stroke="currentColor" x2="-6"/><text fill="currentColor" x="-9" dy="0.32em">10,000</text></g><g class="tick" opacity="1" transform="translate(0,224)"><line stroke="currentColor" x2="-6"/><text fill="currentColor" x="-9" dy="0.32em">12,000</text></g><g class="tick" opacity="1" transform="translate(0,168.00000000000003)"><line stroke="currentColor" x2="-6"/><text fill="currentColor" x="-9" dy="0.32em">14,000</text></g><g class="tick" opacity="1" transform="translate(0,111.99999999999997)"><line stroke="currentColor" x2="-6"/><text fill="currentColor" x="-9" dy="0.32em">16,000</text></g><g class="tick" opacity="1" transform="translate(0,55.999999999999986)"><line stroke="currentColor" x2="-6"/><text fill="currentColor" x="-9" dy="0.32em">18,000</text></g><g class="tick" opacity="1" transform="translate(0,0)"><line stroke="currentColor" x2="-6"/><text fill="currentColor" x="-9" dy="0.32em">20,000</text></g></g><text y="556" x="745" text-anchor="end" style="font-family: Arial, sans-serif; font-size: 12px; fill: rgb(123, 123, 123); font-weight: bold;">year</text></g><text x="4" y="4" style="font-family: Arial, sans-serif; font-size: 12px; fill: black; font-weight: bold; dominant-baseline: hanging;"/></g><g id="grid"><rect x="0" y="0" width="805" height="600" fill="none" stroke="#ccc"/></g></g></svg>